<svg width="12" height="12" viewBox="0 0 12 12" fill="none" xmlns="http://www.w3.org/2000/svg">
<g clip-path="url(#clip0_0_282)">
<path d="M6 3.565L6.485 4.71L6.72 5.265L7.32 5.315L8.555 5.42L7.615 6.235L7.16 6.63L7.295 7.22L7.575 8.425L6.515 7.785L6 7.465L5.485 7.775L4.425 8.415L4.705 7.21L4.84 6.62L4.385 6.225L3.445 5.41L4.68 5.305L5.28 5.255L5.515 4.7L6 3.565ZM6 1L4.595 4.315L1 4.62L3.73 6.985L2.91 10.5L6 8.635L9.09 10.5L8.27 6.985L11 4.62L7.405 4.315L6 1Z" fill="#333333"/>
</g>
<defs>
<clipPath id="clip0_0_282">
<rect width="12" height="12" fill="white"/>
</clipPath>
</defs>
</svg>
